# xmcd CD database file
#
# Track frame offsets:
#	150
#	39873
#	62361
#	93571
#	122127
#	148222
#
# Disc length: 2961 seconds
#
# Revision: 0
# Processed by: cddbd v1.4PL0 Copyright (c) Steve Scherf et al.
# Submitted via: CDex 1.50
#
DISCID=4d0b8f06
DTITLE=Graillier/Cullaz/Goubert - It was a very good night (Strasbourg 1990)
DYEAR=1998
DGENRE=Jazz
TTITLE0=How deep is the ocean
TTITLE1=Effendi
TTITLE2=A child is born
TTITLE3=Blues for Gwen
TTITLE4=My foolish heart
TTITLE5=415, Central Park West
EXTD=YEAR: 1998
EXTT0=
EXTT1=
EXTT2=
EXTT3=
EXTT4=
EXTT5=
PLAYORDER=
